<?xml version="1.0" standalone="no"?><!DOCTYPE svg PUBLIC "-//W3C//DTD SVG 1.1//EN" "http://www.w3.org/Graphics/SVG/1.1/DTD/svg11.dtd"><svg class="icon" width="200px" height="200.00px" viewBox="0 0 1024 1024" version="1.1" xmlns="http://www.w3.org/2000/svg"><path fill="#555555" d="M512 1024a512 512 0 1 1 512-512 512 512 0 0 1-512 512z m0-950.857143a438.857143 438.857143 0 1 0 438.857143 438.857143A438.857143 438.857143 0 0 0 512 73.142857z"  /><path fill="#555555" d="M340.845714 654.006857a32.182857 32.182857 0 0 1-22.857143-55.04l354.121143-354.121143a32.329143 32.329143 0 1 1 45.714286 45.714286l-354.121143 354.121143a32.182857 32.182857 0 0 1-22.857143 9.325714z m48.274286-241.371428a96.585143 96.585143 0 1 1 96.585143-96.585143 96.585143 96.585143 0 0 1-96.548572 96.512z m0-128.768a32.182857 32.182857 0 1 0 32.182857 32.182857 32.182857 32.182857 0 0 0-32.146286-32.256z m257.536 386.304a96.585143 96.585143 0 1 1 96.585143-96.585143 96.585143 96.585143 0 0 1-96.548572 96.512z m0-128.768a32.182857 32.182857 0 1 0 32.182857 32.182857 32.182857 32.182857 0 0 0-32.146286-32.329143z"  /><path fill="#555555" d="M137.874286 804.571429a475.428571 475.428571 0 0 0 748.251428 0 474.550857 474.550857 0 0 1-216.758857 25.051428c-102.656-18.285714-115.529143-80.457143-193.828571-98.194286a388.278857 388.278857 0 0 0-219.428572 22.893715A2319.433143 2319.433143 0 0 0 137.874286 804.571429z"  /></svg>