<svg t="1655196591506" class="icon" viewBox="0 0 1024 1024" version="1.1" xmlns="http://www.w3.org/2000/svg" p-id="2042" data-spm-anchor-id="a313x.7781069.0.i9" width="200" height="200"><path d="M512 901.94598388C296.94262695 901.94598388 122.05401612 727.05737305 122.05401612 512S296.94262695 122.05401612 512 122.05401612s389.94598388 174.88861084 389.94598388 389.94598388-174.88861084 389.94598388-389.94598388 389.94598388z m0-682.86895752c-161.29302979 0-292.92297364 131.62994385-292.92297364 292.92297364s131.62994385 292.92297364 292.92297364 292.92297363 292.92297364-131.62994385 292.92297364-292.92297363S673.29302979 219.07702636 512 219.07702636z" fill="#DEDEE1" p-id="2043"></path><path d="M832.7321167 679.47283935c-26.57318115 0-48.8204956-21.62933349-48.82049561-48.8204956 0-5.56182862 1.23596192-11.12365723 3.08990479-16.68548584 11.74163818-32.75299073 17.92144776-67.35992432 17.92144775-101.96685791 0-161.29302979-131.62994385-292.92297364-292.92297363-292.92297364-26.57318115 0.61798096-48.8204956-21.01135254-49.43847656-47.58453368-0.61798096-26.57318115 21.01135254-48.8204956 47.58453369-49.43847656h1.85394287c215.05737305 0 389.94598388 174.88861084 389.94598388 389.94598388 0 46.34857177-8.03375244 92.0791626-24.10125732 135.33782959-6.79779052 19.15740967-24.71923828 31.51702881-45.11260986 32.13500976z" fill="#555555" p-id="2044" data-spm-anchor-id="a313x.7781069.0.i6" class="selected"></path></svg>