<?xml version="1.0" standalone="no"?><!DOCTYPE svg PUBLIC "-//W3C//DTD SVG 1.1//EN" "http://www.w3.org/Graphics/SVG/1.1/DTD/svg11.dtd"><svg t="1634714745349" class="icon" viewBox="0 0 1024 1024" version="1.1" xmlns="http://www.w3.org/2000/svg" p-id="20483" xmlns:xlink="http://www.w3.org/1999/xlink" width="200" height="200"><defs><style type="text/css"></style></defs><path d="M405.333333 896h107.605334a278.186667 278.186667 0 0 1-36.181334-213.333333H405.333333v213.333333zM896 405.333333v107.605334a278.186667 278.186667 0 0 0-213.333333-36.181334V405.333333h213.333333zM618.666667 405.333333v95.232a278.613333 278.613333 0 0 0-118.101334 118.101334H405.333333v-213.333334h213.333334zM896 341.333333V266.666667A138.666667 138.666667 0 0 0 757.333333 128H682.666667v213.333333h213.333333zM618.666667 128h-213.333334v213.333333h213.333334V128zM341.333333 128H266.666667A138.666667 138.666667 0 0 0 128 266.666667V341.333333h213.333333V128zM128 405.333333v213.333334h213.333333v-213.333334H128zM128 682.666667v74.666666A138.666667 138.666667 0 0 0 266.666667 896H341.333333v-213.333333H128z" p-id="20484" fill="#555555"></path><path d="M981.333333 746.666667a234.666667 234.666667 0 1 0-469.333333 0 234.666667 234.666667 0 0 0 469.333333 0z m-213.333333 21.333333l0.042667 106.794667a21.333333 21.333333 0 1 1-42.666667 0V768h-106.88a21.333333 21.333333 0 1 1 0-42.666667H725.333333v-106.666666a21.333333 21.333333 0 0 1 42.666667 0V725.333333h106.794667a21.333333 21.333333 0 1 1 0 42.666667h-106.752z" p-id="20485" fill="#555555"></path></svg>