<?xml version="1.0" standalone="no"?><!DOCTYPE svg PUBLIC "-//W3C//DTD SVG 1.1//EN" "http://www.w3.org/Graphics/SVG/1.1/DTD/svg11.dtd"><svg class="icon" width="200px" height="200.00px" viewBox="0 0 1024 1024" version="1.1" xmlns="http://www.w3.org/2000/svg"><path fill="#555555" d="M548.547685 0v1.316493a511.969648 511.969648 0 0 1 350.333516 845.920135l2.779264 2.706125-51.708934 51.708935-2.706126-2.706125A511.969648 511.969648 0 1 1 475.409164 1.316493L475.409164 0h73.138521z m96.250294 696.498136l-248.597833 81.915144-74.455015 129.089489c57.560016 27.792638 122.14133 43.298004 190.233294 43.298005 108.025596 0 206.982015-39.05597 283.411769-103.783561L644.797979 696.498136zM78.047579 445.998702a438.319157 438.319157 0 0 0 180.652147 424.349699l66.190362-114.900617L138.606275 462.235453l-60.558696-16.236751z m867.861691 0l-95.665185 25.598482-139.621437 187.307752 136.403342 136.476481a437.075802 437.075802 0 0 0 98.88328-349.382715zM517.098121 568.871417L444.837262 694.084565l148.544337-49.002809-76.210339-76.210339zM245.681069 490.905753l121.556222 191.257233 79.428434-137.427281-200.984656-53.829952z m495.220927 9.873701l-148.544337 39.860494 68.091963 68.091963 80.452374-107.952457zM548.547685 254.814607v221.902273l224.169567-60.046725L548.547685 254.814607z m-73.138521-5.558527L235.295399 412.42812l240.113765 64.28876v-227.4608z m73.138521-174.58165v97.347372l307.913174 222.194827 72.480274-19.381708a439.196819 439.196819 0 0 0-380.320309-300.160491z m-73.138521 0A439.196819 439.196819 0 0 0 95.088855 374.834921l57.194323 15.359089L475.409164 170.485893v-95.811463z" /></svg>