<svg
    viewBox="0 0 1024 1024"
    version="1.1"
    xmlns="http://www.w3.org/2000/svg"
    p-id="3558"
    width="18"
    height="18"
    fill="currentColor"
  >
    <path
      d="M686.8 421.4c148.3 0 268.6 120.2 268.6 268.6 0 148.3-120.3 268.6-268.6 268.6S418.2 838.3 418.2 690s120.3-268.6 268.6-268.6z m34.6-356.5c29.484 0 56.198 11.993 75.547 31.341 19.17 19.171 31.113 45.565 31.353 74.672V280.2c0 9.142-3.676 17.394-9.64 23.36-5.966 5.964-14.218 9.64-23.36 9.64a32.877 32.877 0 0 1-23.335-9.654c-5.866-5.867-9.528-13.932-9.661-22.833l-0.004-0.513V171.8c0-11.303-4.597-21.554-12.022-28.978-7.296-7.297-17.323-11.863-28.402-12.018l-0.576-0.004H180.8c-11.303 0-21.554 4.597-28.978 12.022-7.297 7.296-11.863 17.323-12.018 28.402l-0.004 0.576v623c0 11.303 4.597 21.554 12.022 28.978 7.296 7.297 17.323 11.863 28.402 12.018l0.576 0.004h151.1a32.978 32.978 0 0 1 23.364 9.633A32.718 32.718 0 0 1 364.9 868.7c0 9.13-3.691 17.372-9.654 23.335a32.93 32.93 0 0 1-22.833 9.665H180.8c-29.484 0-56.198-11.993-75.547-31.341-19.17-19.171-31.113-45.565-31.353-74.672V171.8c0-29.484 11.993-56.198 31.341-75.547 19.171-19.17 45.565-31.113 74.672-31.353H721.4z m-34.597 419c-113.663 0-206.053 92.473-206.053 206 0 113.633 92.496 206 206.053 206S892.75 803.533 892.75 690.006c0-113.633-92.285-206.106-205.947-206.106z m-0.103 74.3c9.13 0 17.372 3.691 23.335 9.654A32.917 32.917 0 0 1 719.7 591.2v73.9h76.5c9.08 0 17.292 3.69 23.252 9.634 5.984 5.968 9.701 14.208 9.748 23.278a32.877 32.877 0 0 1-9.654 23.323A32.917 32.917 0 0 1 796.2 731h-108c-2.601 0-5.111-0.367-7.532-0.905a33.031 33.031 0 0 1-19.405-11.395 32.778 32.778 0 0 1-7.563-21V591.2c0-9.142 3.676-17.394 9.64-23.36 5.966-5.964 14.218-9.64 23.36-9.64z m-334.6 39.5c9.095 0 17.32 3.678 23.284 9.64 5.968 5.97 9.67 14.225 9.716 23.372a32.877 32.877 0 0 1-9.654 23.323A32.917 32.917 0 0 1 352.1 663.7h-124a32.877 32.877 0 0 1-23.335-9.654A32.917 32.917 0 0 1 195.1 630.7c0-9.13 3.691-17.372 9.654-23.335A32.917 32.917 0 0 1 228.1 597.7h124z m0-175.6c9.084 0 17.299 3.693 23.26 9.654a33.19 33.19 0 0 1 9.74 23.358 32.877 32.877 0 0 1-9.654 23.323A32.917 32.917 0 0 1 352.1 488.1h-124a32.877 32.877 0 0 1-23.335-9.654A32.917 32.917 0 0 1 195.1 455.1c0-9.13 3.691-17.372 9.654-23.335A32.917 32.917 0 0 1 228.1 422.1h124zM663.9 242c9.13 0 17.372 3.691 23.335 9.654A32.917 32.917 0 0 1 696.9 275c0 9.13-3.691 17.372-9.654 23.335A32.917 32.917 0 0 1 663.9 308H228a32.877 32.877 0 0 1-23.335-9.654A32.917 32.917 0 0 1 195 275c0-9.13 3.691-17.372 9.654-23.335A32.917 32.917 0 0 1 228 242h435.9z"
      p-id="3559"
    ></path>
  </svg>