<svg
    t="1699521455480"
    class="icon"
    viewBox="0 0 1024 1024"
    version="1.1"
    xmlns="http://www.w3.org/2000/svg"
    p-id="29673"
    width="22"
    height="22"
    fill="currentColor"
  >
    <path
      d="M140.219733 482.304c-21.162667 7.748267-37.819733 22.971733-37.819733 40.994133v83.968c0 17.237333 15.530667 32.426667 37.819733 41.028267 8.021333 3.003733 16.896 1.706667 23.893334-3.549867a29.422933 29.422933 0 0 0 11.264-23.108266v-112.674134a29.422933 29.422933 0 0 0-11.264-23.108266 24.7808 24.7808 0 0 0-23.893334-3.549867z m746.632534 6.144a24.7808 24.7808 0 0 0-23.825067 3.584 29.422933 29.422933 0 0 0-11.298133 23.04v115.234133c-21.845333 14.574933-46.08 24.712533-71.509334 29.9008l-108.1344 3.652267a28.7744 28.7744 0 0 0-16.315733 6.144 16.110933 16.110933 0 0 0-5.3248 11.912533c0 8.977067 10.6496 16.384 22.7328 16.384l107.042133-4.096a240.776533 240.776533 0 0 0 103.253334-40.994133c22.3232-7.7824 37.853867-22.971733 37.853866-40.96v-83.626667c2.594133-17.237333-12.868267-32.392533-34.4064-40.174933h-0.068266z m-455.748267 21.7088h4.5056c19.319467 0 29.149867 8.977067 29.149867 26.282667v46.660266c0 17.646933-9.8304 26.248533-29.115734 26.248534h-4.539733c-19.6608 0-29.115733-8.533333-29.115733-26.2144v-46.728534c0-17.2032 9.4208-26.282667 29.0816-26.282666m176.64 0h4.573866c19.285333 0 29.115733 9.0112 29.115734 26.282666v46.6944c0 17.646933-9.8304 26.248533-29.0816 26.248534h-4.608c-19.6608 0-29.0816-8.533333-29.0816-26.2144v-46.728534c0-17.2032 9.4208-26.282667 29.0816-26.282666"
      p-id="29674"
    ></path>
    <path
      d="M638.976 238.933333h-226.0992c-118.0672 0-214.084267 124.552533-214.084267 249.514667v104.6528C197.051733 716.117333 292.864 817.2544 412.8768 819.2h226.0992c75.264-2.2528 144.213333-43.485867 183.125333-109.4656a4.778667 4.778667 0 0 0 0-6.7584 3.822933 3.822933 0 0 0-3.4816 0l-23.620266 3.9936h-77.4144a151.4496 151.4496 0 0 1-49.152 7.509333h-263.304534c-57.582933-2.321067-104.209067-48.64-108.270933-107.52-4.061867-58.88 35.7376-111.5136 92.398933-122.129066 6.5536-71.509333 67.925333-124.484267 137.8304-118.954667h12.014934c69.905067-6.690133 132.096 45.431467 139.3664 116.974933v2.389334c50.5856 6.7584 90.2144 48.0256 96.017066 99.9424v12.6976-2.013867c0 11.025067-1.4336 21.981867-4.232533 32.5632 3.857067 2.7648 10.478933 0 15.837867 0a167.560533 167.560533 0 0 0 34.816-5.12c10.888533-3.6864 20.548267-10.103467 28.330666-18.670933v-116.224C852.718933 363.485867 757.077333 238.933333 638.976 238.933333z"
      p-id="29675"
    ></path>
  </svg>