<svg viewBox="0 0 1024 1024" version="1.1" xmlns="http://www.w3.org/2000/svg" p-id="2400" width="200" height="200"><path d="M928 642.133333h-128v-98.133333h64c17.066667 0 32-14.933333 32-32s-14.933333-32-32-32h-320V384v-2.133333h128c17.066667 0 32-14.933333 32-32V96c0-17.066667-14.933333-32-32-32h-320c-17.066667 0-32 14.933333-32 32v253.866667c0 17.066667 14.933333 32 32 32h128v98.133333h-320c-17.066667 0-32 14.933333-32 32s14.933333 32 32 32h64v98.133333h-128c-17.066667 0-32 14.933333-32 32v253.866667c0 17.066667 14.933333 32 32 32h320c17.066667 0 32-14.933333 32-32V674.133333c0-17.066667-14.933333-32-32-32h-128v-98.133333h448v98.133333h-128c-17.066667 0-32 14.933333-32 32v253.866667c0 17.066667 14.933333 32 32 32h320c17.066667 0 32-14.933333 32-32V674.133333c0-17.066667-14.933333-32-32-32zM384 128h256v189.866667H384V128z m0 768H128v-189.866667h256V896z m512 0H640v-189.866667h256V896z" fill="#212121" p-id="2401"></path></svg>