<svg t="1655178499467" class="icon" viewBox="0 0 1024 1024" version="1.1" xmlns="http://www.w3.org/2000/svg" p-id="2474" width="200" height="200"><path d="M238.62 233.79l209.17 181.75 10.42 9.06 12.27-6.34L753.39 272l185.9 157.89v366.96l-848.58 9.64 147.91-572.7m-11.48-36.93L64.36 827.13 959.64 817V420.51L756.16 247.69l-295 152.49-234-203.31z" fill="#555555" p-id="2475"></path><path d="M79.99 827.13l163.18-368.62 342.91 83.98 363.38-332.68v617.32H79.99z" fill="#555555" p-id="2476"></path><path d="M939.29 232.91V817H95.62L249 470.42l329.35 80.66 10.56 2.59 8-7.34 342.38-313.42m20.35-46.21L583.21 531.31 237.32 446.6l-173 390.7h895.32V186.7z" fill="#555555" p-id="2477"></path></svg>