<svg
    viewBox="0 0 1024 1024"
    version="1.1"
    xmlns="http://www.w3.org/2000/svg"
    p-id="7878"
    width="14"
    height="14"
    fill="currentColor"
  >
    <path
      d="M512 0a113.778 113.778 0 0 0-113.778 113.778A113.778 113.778 0 0 0 512 227.556a113.778 113.778 0 0 0 113.778-113.778A113.778 113.778 0 0 0 512 0zM398.222 910.222A113.778 113.778 0 0 0 512 1024a113.778 113.778 0 0 0 113.778-113.778A113.778 113.778 0 0 0 512 796.444a113.778 113.778 0 0 0-113.778 113.778z m0-398.222A113.778 113.778 0 0 0 512 625.778 113.778 113.778 0 0 0 625.778 512 113.778 113.778 0 0 0 512 398.222 113.778 113.778 0 0 0 398.222 512z"
      p-id="7879"
    ></path>
  </svg>