<svg
    t="1701867067419"
    class="icon"
    viewBox="0 0 1024 1024"
    version="1.1"
    xmlns="http://www.w3.org/2000/svg"
    p-id="4566"
    width="22"
    height="22"
    fill="currentColor"
  >
    <path
      d="M207.945143 759.698286h607.817143c69.412571 0 105.728-35.986286 105.728-104.777143V343.478857c0-68.790857-36.315429-104.813714-105.728-104.813714H207.945143c-69.778286 0-105.764571 36.022857-105.764572 104.813714v311.442286c0 68.790857 35.986286 104.777143 105.764572 104.777143z m4.169143-64.256c-29.586286 0-45.970286-15.433143-45.970286-46.299429v-299.885714c0-31.195429 16.384-46.628571 45.970286-46.628572H811.52c29.586286 0 45.970286 15.433143 45.970286 46.628572v299.885714c0 30.866286-16.384 46.299429-45.970286 46.299429H212.114286z m30.866285-268.726857h29.549715c9.325714 0 15.104-5.778286 15.104-15.104v-29.586286c0-9.325714-5.778286-15.104-15.104-15.104h-29.549715c-9.325714 0-15.140571 5.778286-15.140571 15.104v29.586286c0 9.325714 5.814857 15.104 15.140571 15.104z m101.558858 0h29.586285c9.289143 0 15.104-5.778286 15.104-15.104v-29.586286c0-9.325714-5.814857-15.104-15.140571-15.104h-29.549714c-9.325714 0-15.104 5.778286-15.104 15.104v29.586286c0 9.325714 5.778286 15.104 15.104 15.104z m101.266285 0h29.549715c9.325714 0 15.104-5.778286 15.104-15.104v-29.586286c0-9.325714-5.778286-15.104-15.104-15.104h-29.549715c-9.325714 0-15.140571 5.778286-15.140571 15.104v29.586286c0 9.325714 5.814857 15.104 15.140571 15.104z m101.558857 0h29.549715c9.325714 0 15.140571-5.778286 15.140571-15.104v-29.586286c0-9.325714-5.814857-15.104-15.140571-15.104h-29.549715c-9.325714 0-15.104 5.778286-15.104 15.104v29.586286c0 9.325714 5.778286 15.104 15.104 15.104z m102.217143 0h28.598857c9.325714 0 15.104-5.778286 15.104-15.104v-29.586286c0-9.325714-5.778286-15.104-15.104-15.104h-28.598857c-9.984 0-15.725714 5.778286-15.725714 15.104v29.586286c0 9.325714 5.741714 15.104 15.725714 15.104z m100.571429 0h29.622857c9.289143 0 15.067429-5.778286 15.067429-15.104v-29.586286c0-9.325714-5.778286-15.104-15.104-15.104h-29.549715c-9.325714 0-15.104 5.778286-15.104 15.104v29.586286c0 9.325714 5.778286 15.104 15.104 15.104zM243.017143 528.932571h29.549714c9.325714 0 15.104-5.778286 15.104-15.104v-29.586285c0-9.325714-5.778286-15.104-15.104-15.104h-29.549714c-9.325714 0-15.140571 5.778286-15.140572 15.104v29.586285c0 9.325714 5.814857 15.104 15.140572 15.104z m101.558857 0h29.586286c9.289143 0 15.104-5.778286 15.104-15.104v-29.586285c0-9.325714-5.814857-15.104-15.140572-15.104h-29.549714c-9.325714 0-15.104 5.778286-15.104 15.104v29.586285c0 9.325714 5.778286 15.104 15.104 15.104z m101.266286 0h29.549714c9.325714 0 15.104-5.778286 15.104-15.104v-29.586285c0-9.325714-5.778286-15.104-15.104-15.104h-29.549714c-9.325714 0-15.140571 5.778286-15.140572 15.104v29.586285c0 9.325714 5.814857 15.104 15.140572 15.104z m101.558857 0h29.549714c9.325714 0 15.140571-5.778286 15.140572-15.104v-29.586285c0-9.325714-5.814857-15.104-15.140572-15.104h-29.549714c-9.325714 0-15.104 5.778286-15.104 15.104v29.586285c0 9.325714 5.778286 15.104 15.104 15.104z m102.217143 0h28.598857c9.325714 0 15.104-5.778286 15.104-15.104v-29.586285c0-9.325714-5.778286-15.104-15.104-15.104h-28.598857c-9.984 0-15.725714 5.778286-15.725715 15.104v29.586285c0 9.325714 5.741714 15.104 15.725715 15.104z m100.571428 0h29.622857c9.289143 0 15.067429-5.778286 15.067429-15.104v-29.586285c0-9.325714-5.778286-15.104-15.104-15.104h-29.549714c-9.325714 0-15.104 5.778286-15.104 15.104v29.586285c0 9.325714 5.778286 15.104 15.104 15.104zM243.017143 631.149714h29.549714c9.325714 0 15.104-5.778286 15.104-15.104v-29.586285c0-9.325714-5.778286-15.104-15.104-15.104h-29.549714c-9.325714 0-15.140571 5.778286-15.140572 15.104v29.586285c0 9.325714 5.814857 15.104 15.140572 15.104z m104.118857 0h328.521143c11.227429 0 17.664-6.436571 17.664-17.700571v-24.429714c0-11.227429-6.436571-17.664-17.664-17.664H347.062857c-11.227429 0-17.664 6.436571-17.664 17.664v24.429714c0 11.264 6.436571 17.700571 17.664 17.700571z m403.090286 0h29.549714c9.325714 0 15.104-5.778286 15.104-15.104v-29.586285c0-9.325714-5.778286-15.104-15.104-15.104h-29.549714c-9.325714 0-15.104 5.778286-15.104 15.104v29.586285c0 9.325714 5.778286 15.104 15.104 15.104zM512 937.472c12.873143 0 28.598857-6.765714 42.422857-11.593143l161.353143-58.148571c14.811429-5.156571 21.577143-18.322286 21.577143-27.977143 0-18.322286-12.873143-32.804571-32.182857-32.804572-9.947429 0-20.882286 4.498286-29.549715 7.716572L512 875.446857l-163.291429-60.781714c-8.996571-3.181714-19.602286-7.68-29.878857-7.68-18.322286 0-31.817143 13.787429-31.817143 32.768 0 9.654857 6.107429 22.820571 21.211429 27.977143l161.645714 58.148571c13.860571 5.156571 29.257143 11.593143 42.130286 11.593143z"
      p-id="4567"
    ></path>
  </svg>