<svg
    viewBox="0 0 1024 1024"
    version="1.1"
    xmlns="http://www.w3.org/2000/svg"
    width="18"
    height="18"
    fill="currentColor"
  >
    <path d="M764.41958 521.462537l37.594406-37.594405a202.037962 202.037962 0 0 0 59.588412-144.23976 169.302697 169.302697 0 0 0-53.45055-121.734266l-6.137862-6.137862a163.932068 163.932068 0 0 0-127.872128-53.962038 193.854146 193.854146 0 0 0-135.032967 60.0999l-38.105894 37.082917zM373.386613 254.977023l106.901099-102.297702a281.318681 281.318681 0 0 1 197.69031-84.13986 250.117882 250.117882 0 0 1 160.095904 53.962038l127.872128-122.501499L1022.977023 58.565435l-127.872128 127.872127a279.784216 279.784216 0 0 1-30.689311 360.599401l-100.251748 102.297702zM227.100899 530.157842a189.250749 189.250749 0 0 0-5.370629 265.718282l6.137862 6.137862a164.443556 164.443556 0 0 0 127.872128 53.706294 194.621379 194.621379 0 0 0 135.032967-59.844156l42.965035-43.476524L270.065934 486.937063zM0 967.224775l133.242757-139.892108a278.761239 278.761239 0 0 1 30.689311-360.343656L270.065934 359.064935l80.559441 81.070929L430.929071 359.064935l57.798202 58.053946L409.190809 498.701299l120.1998 120.967033 83.628372-83.884116 53.962038 55.496503-85.418581 85.93007 74.933066 75.444556-106.133866 106.901099a283.108891 283.108891 0 0 1-198.457542 84.651348 251.396603 251.396603 0 0 1-160.095904-53.706293L58.30969 1024z"></path>
  </svg>