<svg
    t="1636626242689"
    class="icon"
    viewBox="0 0 1027 1024"
    version="1.1"
    xmlns="http://www.w3.org/2000/svg"
    p-id="3591"
    width="16"
    height="16"
    fill="currentColor"
  >
    <path
      d="M482.071 912.12v81.75a30.13 30.13 0 0 0 60.26 0v-81.75c-10.446 0-20.087 1.606-31.335 1.606s-18.48-0.803-28.925-1.607z m60.26-800.44V30.13a30.13 30.13 0 0 0-60.26 0v81.55c10.044 0 20.087-1.406 30.13-1.406s19.684 0.602 30.13 1.406zM111.478 482.07H31.134a30.13 30.13 0 0 0 0 60.26h80.345c0-10.044-1.406-20.087-1.406-30.13s0.803-20.488 1.406-30.13z m885.204 0h-84.765c0 9.843 1.607 20.087 1.607 30.13s0 20.086-1.607 30.13h84.765a30.13 30.13 0 0 0 0-60.26z"
      p-id="3592"
    ></path>
    <path
      d="M911.918 482.071A401.726 401.726 0 0 0 542.33 111.68c-10.043 0-20.086-1.406-30.13-1.406s-20.085 0-30.129 1.406A401.726 401.726 0 0 0 111.48 482.07c0 9.843-1.406 20.087-1.406 30.13s0 20.086 1.406 30.13a401.726 401.726 0 0 0 370.592 369.788c9.642 0 19.082 1.607 28.925 1.607s20.086 0 31.334-1.607A401.726 401.726 0 0 0 911.918 542.33c0-10.043 1.607-20.086 1.607-30.13s-0.803-20.487-1.607-30.129zM542.33 851.861c-10.244 0-20.086 1.606-31.334 1.606s-20.087 0-28.925-1.607a341.467 341.467 0 0 1-310.333-309.53c0-10.043-1.406-20.086-1.406-30.13s0-20.085 1.406-30.129A341.467 341.467 0 0 1 482.07 171.94c9.843 0 20.087-1.406 30.13-1.406s20.086 0 30.13 1.406A341.467 341.467 0 0 1 851.658 482.07a296.474 296.474 0 0 1 1.607 30.13c0 10.043 0 20.086-1.607 30.13A341.467 341.467 0 0 1 542.33 851.86z"
      p-id="3593"
    ></path>
    <path
      d="M362.759 512a150.647 150.647 0 1 0 301.294 0 150.647 150.647 0 1 0-301.294 0z"
      p-id="3594"
    ></path>
  </svg>