<?xml version="1.0" standalone="no"?><!DOCTYPE svg PUBLIC "-//W3C//DTD SVG 1.1//EN" "http://www.w3.org/Graphics/SVG/1.1/DTD/svg11.dtd"><svg t="1655039143193" class="icon" viewBox="0 0 1024 1024" version="1.1" xmlns="http://www.w3.org/2000/svg" p-id="2359" xmlns:xlink="http://www.w3.org/1999/xlink" width="200" height="200"><defs><style type="text/css">@font-face { font-family: feedback-iconfont; src: url("//at.alicdn.com/t/font_1031158_u69w8yhxdu.woff2?t=1630033759944") format("woff2"), url("//at.alicdn.com/t/font_1031158_u69w8yhxdu.woff?t=1630033759944") format("woff"), url("//at.alicdn.com/t/font_1031158_u69w8yhxdu.ttf?t=1630033759944") format("truetype"); }
</style></defs><path d="M948.87 928.19H83.64c-10.85 0-19.64-8.79-19.64-19.64V107.79a9.56 9.56 0 0 1 9.56-9.56h44.88a9.56 9.56 0 0 1 9.56 9.56V864.2h820.87a9.56 9.56 0 0 1 9.56 9.56v44.88c0 5.27-4.28 9.55-9.56 9.55z" fill="#333333" p-id="2360"></path><path d="M308.92 766.65h-43.21c-5.74 0-10.4-4.65-10.4-10.4V431.64c0-5.74 4.65-10.4 10.4-10.4h43.21c5.74 0 10.4 4.65 10.4 10.4v324.62c0 5.74-4.66 10.39-10.4 10.39zM436.95 766.65h-43.21c-5.74 0-10.4-4.65-10.4-10.4V305.77c0-5.74 4.65-10.4 10.4-10.4h43.21c5.74 0 10.4 4.65 10.4 10.4v450.49c-0.01 5.74-4.66 10.39-10.4 10.39zM566.07 766.65h-43.21c-5.74 0-10.4-4.65-10.4-10.4V585.29c0-5.74 4.65-10.4 10.4-10.4h43.21c5.74 0 10.4 4.65 10.4 10.4v170.97c0 5.74-4.66 10.39-10.4 10.39zM691.59 766.65h-43.21c-5.74 0-10.4-4.65-10.4-10.4V204.44c0-5.74 4.65-10.4 10.4-10.4h43.21c5.74 0 10.4 4.65 10.4 10.4v551.82c-0.01 5.74-4.66 10.39-10.4 10.39zM822.17 766.65h-43.21c-5.74 0-10.4-4.65-10.4-10.4V393.54c0-5.74 4.65-10.4 10.4-10.4h43.21c5.74 0 10.4 4.65 10.4 10.4v362.72c-0.01 5.74-4.66 10.39-10.4 10.39z" fill="#333333" p-id="2361"></path></svg>